Coordinates
version=1
nRows=14
nColumns=38
inDegrees=no

Units are S.I. units (second, meters, Newtons, ...)
If the header above contains a line with 'inDegrees', this indicates whether rotational values are in degrees (yes) or radians (no).

endheader
time	pelvis_tilt	pelvis_list	pelvis_rotation	pelvis_tx	pelvis_ty	pelvis_tz	hip_flexion_r	hip_adduction_r	hip_rotation_r	knee_angle_r	ankle_angle_r	subtalar_angle_r	mtp_angle_r	hip_flexion_l	hip_adduction_l	hip_rotation_l	knee_angle_l	ankle_angle_l	subtalar_angle_l	mtp_angle_l	lumbar_extension	lumbar_bending	lumbar_rotation	arm_flex_r	arm_add_r	arm_rot_r	elbow_flex_r	pro_sup_r	wrist_flex_r	wrist_dev_r	arm_flex_l	arm_add_l	arm_rot_l	elbow_flex_l	pro_sup_l	wrist_flex_l	wrist_dev_l
20	2.65929	1.40465	-1.1935	0.787495	-0.688964	0.982592	-0.1835	0.0844466	-0.225932	0.284883	0.245486	0	0	0.109446	-0.108368	-0.170373	0.193123	-0.139188	0	0	-0.23153	0.169214	0.121976	0.234064	-0.240134	0.567887	1.90829	0	0	0	0.308847	-0.20702	0.056444	1.51335	0.811294	0	0
20.01	2.55092	1.40557	-1.088	0.78751	-0.687737	0.980528	-0.177926	0.101311	-0.217177	0.280655	0.246418	0	0	0.102958	-0.121485	-0.169646	0.162802	-0.140876	0	0	-0.218639	0.188939	0.125506	0.23064	-0.245427	0.57119	1.9168	0	0	0	0.302862	-0.205821	0.0572215	1.51678	0.811083	0	0
20.02	2.4945	1.40108	-1.03626	0.787588	-0.686362	0.979484	-0.180215	0.111531	-0.213133	0.278385	0.247954	0	0	0.105558	-0.132895	-0.158854	0.173527	-0.126599	0	0	-0.214639	0.202265	0.129863	0.228876	-0.249361	0.57454	1.92329	0	0	0	0.298	-0.20515	0.0578117	1.51949	0.811446	0	0
20.03	2.47457	1.40061	-1.01573	0.78757	-0.686222	0.97911	-0.179362	0.115183	-0.212938	0.277649	0.248363	0	0	0.105461	-0.135983	-0.156521	0.170505	-0.125476	0	0	-0.212547	0.207184	0.128436	0.229873	-0.249723	0.577117	1.92437	0	0	0	0.297192	-0.206073	0.0581325	1.5194	0.811516	0	0
20.04	2.47796	1.40067	-1.01745	0.787453	-0.686375	0.979191	-0.179708	0.114796	-0.214685	0.277256	0.24866	0	0	0.10506	-0.135506	-0.156596	0.169416	-0.125723	0	0	-0.213038	0.207989	0.126095	0.231595	-0.249366	0.5796	1.92458	0	0	0	0.29809	-0.207285	0.0588131	1.51797	0.811372	0	0
20.05	2.4793	1.40083	-1.01702	0.787349	-0.686491	0.979245	-0.17994	0.114677	-0.216532	0.276741	0.249349	0	0	0.105047	-0.13529	-0.156897	0.168556	-0.125806	0	0	-0.213167	0.208996	0.124026	0.233101	-0.249157	0.581074	1.92449	0	0	0	0.299553	-0.208684	0.0604486	1.51597	0.810943	0	0
20.06	2.47691	1.40097	-1.01272	0.787246	-0.686493	0.979226	-0.180122	0.115151	-0.21846	0.275909	0.250251	0	0	0.10521	-0.135563	-0.157016	0.167404	-0.125738	0	0	-0.212658	0.210558	0.122034	0.234331	-0.249134	0.582081	1.92422	0	0	0	0.301502	-0.2098	0.0625258	1.51314	0.810528	0	0
20.07	2.47207	1.40141	-1.00542	0.787098	-0.68645	0.979148	-0.179866	0.115832	-0.221158	0.275004	0.251166	0	0	0.106203	-0.135981	-0.156658	0.166586	-0.125399	0	0	-0.211529	0.212411	0.119568	0.23567	-0.249169	0.583127	1.92345	0	0	0	0.303673	-0.210688	0.0645262	1.51001	0.810339	0	0
20.08	2.46723	1.40167	-0.998097	0.786915	-0.686496	0.979076	-0.179497	0.116544	-0.223895	0.27443	0.252152	0	0	0.107562	-0.136537	-0.156535	0.166611	-0.124623	0	0	-0.210945	0.214346	0.117369	0.237518	-0.249532	0.584347	1.92234	0	0	0	0.306061	-0.211916	0.0668102	1.50759	0.809972	0	0
20.09	2.46429	1.4019	-0.99285	0.786781	-0.686543	0.979042	-0.179459	0.117074	-0.226031	0.273651	0.253496	0	0	0.108963	-0.136932	-0.156767	0.167531	-0.123961	0	0	-0.210663	0.215822	0.115332	0.239577	-0.250037	0.586094	1.92052	0	0	0	0.309064	-0.213123	0.0694226	1.50443	0.809602	0	0
20.1	2.46037	1.40237	-0.986919	0.786692	-0.686523	0.979005	-0.179402	0.117685	-0.227405	0.272607	0.25554	0	0	0.110673	-0.137361	-0.157459	0.168556	-0.12349	0	0	-0.209993	0.217258	0.113514	0.24172	-0.250396	0.588314	1.91846	0	0	0	0.312234	-0.21421	0.0720878	1.50059	0.80922	0	0
20.11	2.43691	1.39902	-0.964646	0.788217	-0.686597	0.979148	-0.184264	0.122711	-0.219796	0.265362	0.254648	0	0	0.0964155	-0.135847	-0.126056	0.139476	-0.140323	0	0	-0.211551	0.220623	0.116074	0.243439	-0.247115	0.589745	1.9146	0	0	0	0.316834	-0.218895	0.0772384	1.49685	0.80696	0	0
20.12	2.43971	1.39304	-0.970921	0.787211	-0.685047	0.978854	-0.192163	0.126462	-0.219457	0.264284	0.257234	0	0	0.0995722	-0.143743	-0.123159	0.166788	-0.118134	0	0	-0.215619	0.228442	0.121127	0.237051	-0.247245	0.58187	1.92414	0	0	0	0.317423	-0.216018	0.080191	1.49327	0.806185	0	0
20.13	2.45131	1.40149	-0.973242	0.786338	-0.68634	0.978966	-0.182382	0.120288	-0.228703	0.267889	0.259531	0	0	0.110302	-0.13854	-0.155131	0.165837	-0.123489	0	0	-0.211523	0.223708	0.111703	0.240743	-0.244022	0.581214	1.91957	0	0	0	0.324022	-0.217061	0.0818774	1.48553	0.80569	0	0
